#!OML:ASF H:\Terrain\Patient Classification 1\Walking\steve\steve.ASF
:FULLY-SPECIFIED
:DEGREES
155
root 9.19736 16.0665 -2.26408 6.63676 -10.4227 2.36697
lowerback -1.41596 4.23209 -3.76903
upperback -3.40042 5.58454 -2.23165
thorax -2.84706 2.85371 -0.26555
lowerneck -12.5379 -1.3104 -4.31241
upperneck 9.35951 -1.38395 3.18198
head 4.91089 -0.623328 1.5817
rclavicle 4.93669e-014 -1.23246e-014
rhumerus -18.2145 0.531875 -87.2076
rradius 50.1345
rwrist -19.9313
rhand -22.1828 -39.5135
rfingers 7.12502
rthumb 4.23223 -69.4512
lclavicle 4.93669e-014 -1.23246e-014
lhumerus -67.189 30.1286 38.9369
lradius 8.96787
lwrist -27.5261
lhand -15.2817 -7.5404
lfingers 7.12502
lthumb 10.893 22.1571
rfemur -5.69818 4.81102 16.6908
rtibia 61.0749
rfoot 16.0328 -5.38734
rtoes -1.35489
lfemur -33.4695 6.43942 -26.9279
ltibia 34.4655
lfoot -7.703 -0.87704
ltoes 2.53703
156
root 9.19913 16.0921 -2.06628 6.75547 -10.4011 2.12151
lowerback -1.21617 4.14241 -3.65284
upperback -3.48863 5.45593 -2.06152
thorax -3.05256 2.79174 -0.174376
lowerneck -12.521 -1.17608 -4.01575
upperneck 9.46507 -1.18393 2.57324
head 4.92783 -0.555643 1.35945
rclavicle 4.1605e-014 1.39149e-014
rhumerus -19.22 0.757402 -87.5092
rradius 49.1035
rwrist -20.0598
rhand -22.004 -40.1037
rfingers 7.12502
rthumb 4.40489 -70.0379
lclavicle 4.1605e-014 1.39149e-014
lhumerus -66.2658 31.4674 38.9893
lradius 8.92202
lwrist -28.4001
lhand -15.4185 -7.60153
lfingers 7.12502
lthumb 10.7611 22.1028
rfemur -8.06625 4.89018 17.1776
rtibia 63.4777
rfoot 13.9073 -3.89546
rtoes -7.48224
lfemur -32.5956 6.22613 -26.668
ltibia 34.0134
lfoot -8.13775 -0.724483
ltoes 2.13908
157
root 9.20959 16.1252 -1.85355 6.68945 -10.2928 2.13149
lowerback -1.06225 4.05827 -3.64358
upperback -3.51619 5.33666 -1.99147
thorax -3.17024 2.73428 -0.119214
lowerneck -12.5223 -1.10051 -3.57094
upperneck 9.65495 -1.07087 1.82342
head 4.97695 -0.535119 1.06244
rclavicle 1.23837e-014 -1.78906e-014
rhumerus -20.5284 0.582271 -87.817
rradius 48.3729
rwrist -19.7926
rhand -21.3925 -39.7401
rfingers 7.12502
rthumb 4.99541 -69.6613
lclavicle 1.23837e-014 -1.78906e-014
lhumerus -65.3794 32.6797 39.1102
lradius 9.14082
lwrist -29.3376
lhand -16.4696 -7.20431
lfingers 7.12502
lthumb 9.74707 22.5501
rfemur -10.1503 4.87586 17.2485
rtibia 65.5817
rfoot 11.6107 -2.3365
rtoes -13.9387
lfemur -31.4235 5.99241 -26.7449
ltibia 33.5478
lfoot -8.80466 -0.581574
ltoes 1.63226
158
root 9.22309 16.1737 -1.63159 6.40085 -10.1322 2.49533
lowerback -0.84276 3.9633 -3.84003
upperback -3.47446 5.19575 -2.06876
thorax -3.25771 2.66824 -0.102358
lowerneck -12.3947 -1.09777 -3.49132
upperneck 9.7921 -1.06131 1.61741
head 4.99684 -0.542713 0.986462
rclavicle 1.60596e-014 1.70955e-014
rhumerus -22.0969 0.353282 -88.0573
rradius 47.8469
rwrist -19.6223
rhand -20.5413 -39.1668
rfingers 7.12502
rthumb 5.81725 -69.067
lclavicle 1.60596e-014 1.70955e-014
lhumerus -64.61 33.7992 39.2002
lradius 9.48313
lwrist -30.9501
lhand -18.1501 -8.35005
lfingers 7.12502
lthumb 8.12547 21.4737
rfemur -11.8216 4.65596 16.8486
rtibia 67.3215
rfoot 8.95613 -1.13863
rtoes -18.6098
lfemur -30.0014 5.87453 -27.2857
ltibia 33.1669
lfoot -9.64428 -0.385044
ltoes -2.19676
159
root 9.229 16.2148 -1.41816 6.19348 -9.7795 2.90093
lowerback -0.723912 3.8255 -4.14284
upperback -3.40014 5.00302 -2.11599
thorax -3.26496 2.57879 0.0151838
lowerneck -11.8966 -1.08718 -4.03072
upperneck 9.39422 -1.03483 2.14491
head 4.7958 -0.514708 1.24124
rclavicle -1.74402e-015 -3.18055e-015
rhumerus -23.671 -0.110676 -88.074
rradius 47.1261
rwrist -19.3436
rhand -21.9338 -42.4578
rfingers 7.12502
rthumb 4.47274 -72.3906
lclavicle -1.74402e-015 -3.18055e-015
lhumerus -63.5427 35.0298 39.5178
lradius 9.69822
lwrist -32.6563
lhand -19.5816 -10.2926
lfingers 7.12502
lthumb 6.7437 19.58
rfemur -13.5136 4.20282 16.5086
rtibia 68.7863
rfoot 6.70731 -0.873824
rtoes -20.9157
lfemur -28.6923 5.65229 -27.87
ltibia 32.6807
lfoot -10.2377 -0.146111
ltoes -5.72536
160
root 9.24013 16.2426 -1.20245 6.14424 -9.35926 3.05177
lowerback -0.77303 3.71911 -4.13651
upperback -3.31915 4.868 -2.08659
thorax -3.15055 2.50972 0.0536243
lowerneck -11.3827 -1.13386 -4.71349
upperneck 8.88362 -1.07584 2.77608
head 4.56151 -0.518863 1.54526
rclavicle -1.55316e-014 2.14687e-014
rhumerus -25.1939 -0.554501 -87.9967
rradius 46.4136
rwrist -18.9491
rhand -20.9184 -41.7993
rfingers 7.12502
rthumb 5.45311 -71.7091
lclavicle -1.55316e-014 2.14687e-014
lhumerus -62.1192 36.3469 40.1508
lradius 10.0488
lwrist -33.4979
lhand -20.3057 -11.3539
lfingers 7.12502
lthumb 6.04472 18.5399
rfemur -15.3139 3.8086 16.4497
rtibia 70.0141
rfoot 4.85227 -0.915123
rtoes -20.7991
lfemur -27.4617 5.04388 -28.0774
ltibia 32.1855
lfoot -10.8851 -0.0394416
ltoes -4.96046
161
root 9.25319 16.2666 -0.98806 6.10702 -9.08283 2.98357
lowerback -0.696239 3.65231 -3.89499
upperback -3.3076 4.77948 -2.03284
thorax -3.1623 2.46005 -0.0261793
lowerneck -11.5283 -1.15776 -4.83443
upperneck 9.36065 -1.08809 2.78871
head 4.73421 -0.530478 1.56871
rclavicle -2.89449e-014 -9.14409e-015
rhumerus -26.5272 -1.0555 -88.1142
rradius 45.5069
rwrist -18.6127
rhand -19.8459 -40.4627
rfingers 7.12502
rthumb 6.48855 -70.3433
lclavicle -2.89449e-014 -9.14409e-015
lhumerus -58.11 35.3087 45.4892
lradius 10.6858
lwrist -30.0238
lhand -20.5397 -10.9252
lfingers 7.12502
lthumb 5.8188 18.9749
rfemur -17.0342 3.69939 16.6379
rtibia 71.0079
rfoot 3.00396 -0.809703
rtoes -20.1677
lfemur -26.3221 4.59355 -28.0225
ltibia 31.8829
lfoot -11.6131 -0.324795
ltoes -2.56185
162
root 9.25159 16.2776 -0.789145 6.07094 -8.83179 2.98545
lowerback -0.510713 3.56349 -3.96912
upperback -3.35961 4.65052 -1.9363
thorax -3.33107 2.40151 0.101171
lowerneck -11.822 -1.08496 -4.68135
upperneck 10.1818 -0.972116 2.47979
head 5.03096 -0.492087 1.45789
rclavicle -1.66513e-014 1.19271e-015
rhumerus -27.918 -1.50163 -88.2409
rradius 44.3885
rwrist -18.7517
rhand -19.0229 -42.7044
rfingers 7.12502
rthumb 7.28301 -72.5591
lclavicle -1.66513e-014 1.19271e-015
lhumerus -54.6079 34.0937 50.2467
lradius 11.289
lwrist -27.0846
lhand -20.8408 -11.6733
lfingers 7.12502
lthumb 5.5281 18.2346
rfemur -18.8023 3.58965 16.8513
rtibia 71.8729
rfoot 1.10283 -0.745453
rtoes -22.4698
lfemur -25.4192 4.36194 -28.0425
ltibia 31.752
lfoot -12.2594 -0.669391
ltoes -2.17919
163
root 9.24994 16.2909 -0.589301 6.04743 -8.55999 2.75069
lowerback -0.323523 3.47614 -3.85225
upperback -3.43565 4.5283 -1.75423
thorax -3.51653 2.34301 0.210717
lowerneck -11.5548 -1.02867 -4.76434
upperneck 10.4122 -0.899593 2.4991
head 5.05595 -0.461879 1.48415
rclavicle 3.49768e-014 3.37934e-015
rhumerus -29.463 -1.58281 -88.2668
rradius 43.2588
rwrist -19.0358
rhand -21.2853 -38.5851
rfingers 7.12502
rthumb 5.0989 -68.5038
lclavicle 3.49768e-014 3.37934e-015
lhumerus -51.1203 32.567 54.8164
lradius 11.9281
lwrist -23.6775
lhand -21.1548 -12.8637
lfingers 7.12502
lthumb 5.22484 17.0519
rfemur -20.5124 3.50008 17.3388
rtibia 72.4785
rfoot -0.642348 -0.818554
rtoes -23.3968
lfemur -24.6202 4.11454 -27.8261
ltibia 31.7386
lfoot -13.0085 -0.483055
ltoes -4.90759
164
root 9.25628 16.3111 -0.380991 6.03352 -8.24183 2.45349
lowerback -0.281284 3.3403 -3.52724
upperback -3.45597 4.35511 -1.57658
thorax -3.54324 2.25076 0.21632
lowerneck -11.1419 -0.991287 -4.77544
upperneck 10.356 -0.863557 2.47025
head 4.96831 -0.448591 1.48014
rclavicle -1.93536e-014 3.57812e-015
rhumerus -30.814 -1.93717 -88.1681
rradius 41.9317
rwrist -18.2959
rhand -19.3308 -40.8646
rfingers 7.12502
rthumb 6.98579 -70.7294
lclavicle -1.93536e-014 3.57812e-015
lhumerus -47.5967 30.409 59.5633
lradius 12.799
lwrist -19.5111
lhand -21.5952 -12.8198
lfingers 7.12502
lthumb 4.79965 17.1058
rfemur -22.0649 3.46374 17.8548
rtibia 72.7604
rfoot -1.99162 -0.798744
rtoes -20.9289
lfemur -23.7931 3.81096 -27.5643
ltibia 31.7721
lfoot -13.6946 -0.282228
ltoes -6.93841
165
root 9.25687 16.3035 -0.187816 5.98282 -7.77401 2.36761
lowerback -0.206462 3.16547 -3.41634
upperback -3.37226 4.12658 -1.44432
thorax -3.49231 2.13453 0.29755
lowerneck -11.3284 -0.982575 -4.5593
upperneck 10.658 -0.829416 2.06799
head 5.08979 -0.451652 1.32247
rclavicle 2.82989e-014 0
rhumerus -32.0018 -2.75149 -87.9448
rradius 40.6257
rwrist -17.1582
rhand -17.9443 -39.0023
rfingers 7.12502
rthumb 8.32409 -68.8183
lclavicle 2.82989e-014 0
lhumerus -44.1605 27.9952 64.065
lradius 13.719
lwrist -15.3282
lhand -22.283 -12.5179
lfingers 7.12502
lthumb 4.13553 17.4217
rfemur -23.6744 3.32213 18.1822
rtibia 72.979
rfoot -3.57582 -0.643469
rtoes -20.7116
lfemur -22.8763 3.37735 -27.4771
ltibia 31.7109
lfoot -14.2321 -0.584448
ltoes -6.9126
166
root 9.26424 16.2909 0.0288924 5.71638 -7.45213 2.53113
lowerback -0.247678 3.07894 -3.47395
upperback -3.20561 4.01772 -1.4094
thorax -3.2992 2.07889 0.378261
lowerneck -11.4035 -0.935746 -4.50771
upperneck 10.9583 -0.759381 1.9651
head 5.19293 -0.424527 1.28799
rclavicle -3.48044e-014 -1.59028e-015
rhumerus -33.3651 -3.74575 -87.691
rradius 39.2701
rwrist -16.5441
rhand -18.0278 -37.5193
rfingers 7.12502
rthumb 8.24354 -67.3385
lclavicle -3.48044e-014 -1.59028e-015
lhumerus -41.1839 25.8452 67.5788
lradius 14.6892
lwrist -11.9107
lhand -22.3815 -12.9271
lfingers 7.12502
lthumb 4.04038 17.0143
rfemur -24.9037 3.17148 18.1248
rtibia 73.007
rfoot -5.86562 -0.165241
rtoes -22.5508
lfemur -21.4416 3.09912 -27.7117
ltibia 31.2889
lfoot -14.7796 -0.911553
ltoes -6.25437
167
root 9.26834 16.3028 0.242824 5.55266 -7.33714 2.81529
lowerback -0.134313 3.04844 -3.8096
upperback -3.23496 3.96517 -1.39596
thorax -3.41718 2.06367 0.570861
lowerneck -11.0372 -0.861 -4.47545
upperneck 11.031 -0.684783 1.98952
head 5.15165 -0.387263 1.29688
rclavicle -1.7184e-014 5.1684e-015
rhumerus -35.0832 -4.5924 -87.3568
rradius 38.0702
rwrist -16.0743
rhand -19.14 -38.0249
rfingers 7.12502
rthumb 7.16999 -67.8835
lclavicle -1.7184e-014 5.1684e-015
lhumerus -38.8014 23.6963 70.4734
lradius 15.947
lwrist -8.48381
lhand -22.0284 -12.8646
lfingers 7.12502
lthumb 4.38131 17.0701
rfemur -26.3701 3.24266 17.8812
rtibia 72.8165
rfoot -7.52537 0.526288
rtoes -17.3708
lfemur -20.155 2.87581 -28.0745
ltibia 30.7563
lfoot -15.1662 -1.03511
ltoes -4.44746
